<svg width="21" height="21" viewBox="0 0 21 21" fill="none" xmlns="http://www.w3.org/2000/svg">
<path d="M2.96951 2.8333L4.75875 14.4633C4.77177 14.5593 4.799 14.6508 4.83826 14.7356C4.95645 14.9908 5.18361 15.1852 5.46001 15.2592C5.54445 15.2818 5.63294 15.2932 5.72346 15.2916H16.25C16.6732 15.2916 17.0463 15.014 17.1679 14.6087L20.0429 5.02534C20.13 4.73518 20.0747 4.42095 19.8939 4.17791C19.713 3.93487 19.4279 3.79164 19.125 3.79164H5.05616L4.74097 1.7429C4.72917 1.65724 4.70604 1.5752 4.67315 1.49833C4.61345 1.35834 4.52204 1.23708 4.40912 1.14203C4.30435 1.05368 4.18037 0.987383 4.04435 0.950299C3.95874 0.926855 3.86891 0.915111 3.777 0.916636H1.875C1.34573 0.916636 0.916667 1.3457 0.916667 1.87497C0.916667 2.40424 1.34573 2.8333 1.875 2.8333H2.96951ZM6.53052 13.375L5.35104 5.7083H17.837L15.537 13.375H6.53052Z" fill="#878D99"/>
<path d="M8.58333 18.1666C8.58333 19.2252 7.72521 20.0833 6.66667 20.0833C5.60812 20.0833 4.75 19.2252 4.75 18.1666C4.75 17.1081 5.60812 16.25 6.66667 16.25C7.72521 16.25 8.58333 17.1081 8.58333 18.1666Z" fill="#878D99"/>
<path d="M17.2083 18.1666C17.2083 19.2252 16.3502 20.0833 15.2917 20.0833C14.2331 20.0833 13.375 19.2252 13.375 18.1666C13.375 17.1081 14.2331 16.25 15.2917 16.25C16.3502 16.25 17.2083 17.1081 17.2083 18.1666Z" fill="#878D99"/>
</svg>
