<svg width="21" height="18" viewBox="0 0 21 18" fill="none" xmlns="http://www.w3.org/2000/svg">
<path d="M10.5 2.33899C8.24234 0.31619 4.77037 0.389571 2.6008 2.55914C0.355289 4.80465 0.355289 8.44535 2.6008 10.6909L9.14471 17.2348C9.89322 17.9833 11.1068 17.9833 11.8553 17.2348L18.3992 10.6909C20.6447 8.44535 20.6447 4.80465 18.3992 2.55914C16.2296 0.389571 12.7577 0.31619 10.5 2.33899ZM9.37724 3.91442L9.82236 4.35954C10.1966 4.73379 10.8034 4.73379 11.1776 4.35954L11.6228 3.91442C13.1198 2.41741 15.5469 2.41741 17.0439 3.91442C18.5409 5.41143 18.5409 7.83857 17.0439 9.33558L10.5 15.8795L3.95609 9.33558C2.45908 7.83857 2.45908 5.41143 3.95609 3.91442C5.4531 2.41741 7.88023 2.41741 9.37724 3.91442Z" fill="#878D99"/>
</svg>
