<svg width="21" height="20" viewBox="0 0 21 20" fill="none" xmlns="http://www.w3.org/2000/svg">
<path d="M9.86333 1.15869C10.2264 0.835937 10.7736 0.835937 11.1367 1.15869L19.7617 8.82536C20.1573 9.17699 20.1929 9.78272 19.8413 10.1783C19.4897 10.5739 18.8839 10.6095 18.4883 10.2579L18.1667 9.97198V17.2083C18.1667 18.2668 17.3086 19.125 16.25 19.125H4.75002C3.69147 19.125 2.83335 18.2668 2.83335 17.2083V9.97198L2.5117 10.2579C2.11611 10.6095 1.51038 10.5739 1.15875 10.1783C0.807118 9.78272 0.84275 9.17699 1.23833 8.82536L9.86333 1.15869ZM4.75002 8.26828V17.2083H7.62502V12.4166C7.62502 11.8874 8.05408 11.4583 8.58335 11.4583H12.4167C12.946 11.4583 13.375 11.8874 13.375 12.4166V17.2083H16.25V8.26828L10.5 3.15717L4.75002 8.26828ZM11.4583 17.2083V13.375H9.54168V17.2083H11.4583Z" fill="#878D99"/>
</svg>
