<svg width="17" height="13" viewBox="0 0 17 13" fill="none" xmlns="http://www.w3.org/2000/svg">
<path d="M0.833336 1.70833C0.833336 1.17906 1.2624 0.75 1.79167 0.75H2.75C3.27928 0.75 3.70834 1.17906 3.70834 1.70833C3.70834 2.23761 3.27928 2.66667 2.75 2.66667H1.79167C1.2624 2.66667 0.833336 2.23761 0.833336 1.70833ZM5.625 1.70833C5.625 1.17906 6.05406 0.75 6.58334 0.75H15.2083C15.7376 0.75 16.1667 1.17906 16.1667 1.70833C16.1667 2.23761 15.7376 2.66667 15.2083 2.66667H6.58334C6.05406 2.66667 5.625 2.23761 5.625 1.70833ZM0.833336 6.5C0.833336 5.97073 1.2624 5.54167 1.79167 5.54167H2.75C3.27928 5.54167 3.70834 5.97073 3.70834 6.5C3.70834 7.02927 3.27928 7.45833 2.75 7.45833H1.79167C1.2624 7.45833 0.833336 7.02927 0.833336 6.5ZM5.625 6.5C5.625 5.97073 6.05406 5.54167 6.58334 5.54167H15.2083C15.7376 5.54167 16.1667 5.97073 16.1667 6.5C16.1667 7.02927 15.7376 7.45833 15.2083 7.45833H6.58334C6.05406 7.45833 5.625 7.02927 5.625 6.5ZM0.833336 11.2917C0.833336 10.7624 1.2624 10.3333 1.79167 10.3333H2.75C3.27928 10.3333 3.70834 10.7624 3.70834 11.2917C3.70834 11.8209 3.27928 12.25 2.75 12.25H1.79167C1.2624 12.25 0.833336 11.8209 0.833336 11.2917ZM5.625 11.2917C5.625 10.7624 6.05406 10.3333 6.58334 10.3333H15.2083C15.7376 10.3333 16.1667 10.7624 16.1667 11.2917C16.1667 11.8209 15.7376 12.25 15.2083 12.25H6.58334C6.05406 12.25 5.625 11.8209 5.625 11.2917Z" fill="#1C84D7"/>
</svg>
