<svg width="19" height="21" viewBox="0 0 19 21" fill="none" xmlns="http://www.w3.org/2000/svg">
<path d="M9.5 2.83329C7.38291 2.83329 5.66667 4.54953 5.66667 6.66663C5.66667 8.78372 7.38291 10.5 9.5 10.5C11.6171 10.5 13.3333 8.78372 13.3333 6.66663C13.3333 4.54953 11.6171 2.83329 9.5 2.83329ZM3.75 6.66663C3.75 3.49099 6.32436 0.916626 9.5 0.916626C12.6756 0.916626 15.25 3.49099 15.25 6.66663C15.25 9.84226 12.6756 12.4166 9.5 12.4166C6.32436 12.4166 3.75 9.84226 3.75 6.66663ZM5.66667 16.25C4.07885 16.25 2.79167 17.5371 2.79167 19.125C2.79167 19.6542 2.36261 20.0833 1.83333 20.0833C1.30406 20.0833 0.875 19.6542 0.875 19.125C0.875 16.4786 3.0203 14.3333 5.66667 14.3333H13.3333C15.9797 14.3333 18.125 16.4786 18.125 19.125C18.125 19.6542 17.6959 20.0833 17.1667 20.0833C16.6374 20.0833 16.2083 19.6542 16.2083 19.125C16.2083 17.5371 14.9212 16.25 13.3333 16.25H5.66667Z" fill="#878D99"/>
</svg>
